<svg xmlns="http://www.w3.org/2000/svg" xmlns:xlink="http://www.w3.org/1999/xlink" width="300" zoomAndPan="magnify" viewBox="0 0 224.87999 225" height="300" preserveAspectRatio="xMidYMid meet" version="1.0"><defs><g/><clipPath id="2326c6a92c"><path d="M 33.035156 99.820312 L 59.570312 99.820312 L 59.570312 126.355469 L 33.035156 126.355469 Z M 33.035156 99.820312 " clip-rule="nonzero"/></clipPath></defs><g fill="#f14902" fill-opacity="1"><g transform="translate(109.735925, 121.548277)"><g><path d="M 11.105469 -18.421875 L -0.527344 -18.421875 L -0.527344 0 L 11.054688 0 C 14.421875 0 16.894531 -2.34375 16.894531 -5.710938 C 16.894531 -7.894531 15.765625 -9.238281 13.683594 -10.027344 C 15.183594 -10.554688 15.949219 -11.972656 15.949219 -13.5 C 15.949219 -16.183594 13.789062 -18.421875 11.105469 -18.421875 Z M 8 -11.578125 L 6.65625 -11.578125 L 6.65625 -13.5 L 8 -13.5 C 8.660156 -13.5 8.949219 -13.027344 8.949219 -12.554688 C 8.949219 -12.078125 8.632812 -11.578125 8 -11.578125 Z M 8.449219 -5.054688 L 6.65625 -5.054688 L 6.65625 -7.367188 L 8.449219 -7.367188 C 9.394531 -7.367188 9.761719 -6.789062 9.761719 -6.210938 C 9.761719 -5.632812 9.367188 -5.054688 8.449219 -5.054688 Z M 8.449219 -5.054688 "/></g></g></g><g fill="#f14902" fill-opacity="1"><g transform="translate(128.076547, 121.548277)"><g><path d="M -0.65625 -9.261719 C -0.632812 -2.867188 4.316406 0.316406 9.289062 0.316406 C 14.265625 0.316406 19.265625 -2.894531 19.289062 -9.261719 C 19.265625 -15.710938 14.289062 -18.921875 9.316406 -18.921875 C 4.34375 -18.921875 -0.632812 -15.710938 -0.65625 -9.261719 Z M 6.449219 -9.289062 C 6.472656 -11.449219 7.867188 -12.5 9.289062 -12.5 C 10.683594 -12.5 12.105469 -11.449219 12.105469 -9.289062 C 12.078125 -7.15625 10.683594 -6.105469 9.261719 -6.105469 C 7.867188 -6.105469 6.449219 -7.15625 6.449219 -9.289062 Z M 6.449219 -9.289062 "/></g></g></g><g fill="#f14902" fill-opacity="1"><g transform="translate(148.732772, 121.548277)"><g><path d="M 6.65625 -18.421875 L -0.527344 -18.421875 L -0.527344 0 L 13.34375 0 L 13.34375 -5.894531 L 6.65625 -5.894531 Z M 6.65625 -18.421875 "/></g></g></g><g fill="#f14902" fill-opacity="1"><g transform="translate(163.389484, 121.548277)"><g><path d="M 3.316406 -12.660156 L 3.316406 0 L 10.5 0 L 10.5 -12.660156 L 14.421875 -12.660156 L 14.421875 -18.421875 L -0.605469 -18.421875 L -0.605469 -12.660156 Z M 3.316406 -12.660156 "/></g></g></g><g fill="#f14902" fill-opacity="1"><g transform="translate(61.301341, 121.548267)"><g><path d="M 1.207031 -16.886719 L 1.207031 0 L 12.421875 0 L 12.421875 -3.980469 L 5.332031 -3.980469 L 5.332031 -16.886719 Z M 1.207031 -16.886719 "/></g></g></g><g fill="#f14902" fill-opacity="1"><g transform="translate(74.591555, 121.548267)"><g><path d="M 0.53125 -15.921875 C 0.53125 -14.5 1.6875 -13.796875 2.847656 -13.796875 C 3.957031 -13.796875 5.089844 -14.5 5.089844 -15.921875 C 5.089844 -17.417969 3.933594 -18.140625 2.773438 -18.140625 C 1.664062 -18.140625 0.53125 -17.394531 0.53125 -15.921875 Z M 0.890625 -13.050781 L 4.753906 -13.050781 L 4.753906 0 L 0.890625 0 Z M 0.890625 -13.050781 "/></g></g></g><g fill="#f14902" fill-opacity="1"><g transform="translate(81.055763, 121.548267)"><g><path d="M 4.390625 -11.746094 L 4.390625 -13.050781 L 0.554688 -13.050781 L 0.554688 0 L 4.582031 0 L 4.582031 -7.09375 C 4.582031 -8.757812 5.933594 -9.722656 7.066406 -9.722656 C 8.105469 -9.722656 9.09375 -8.925781 9.09375 -7.164062 L 9.09375 0 L 12.953125 0 L 12.953125 -7.1875 C 12.976562 -10.445312 11.964844 -13.195312 8.25 -13.242188 C 6.851562 -13.242188 5.308594 -12.90625 4.390625 -11.746094 Z M 4.390625 -11.746094 "/></g></g></g><g fill="#f14902" fill-opacity="1"><g transform="translate(95.696702, 121.548267)"><g><path d="M 7.839844 -6.5625 L 12.253906 -12.859375 L 12.253906 -13.050781 L 8.105469 -13.050781 L 4.511719 -7.914062 L 4.511719 -16.886719 L 0.722656 -16.886719 L 0.722656 0 L 4.511719 0 L 4.511719 -5.089844 L 8.25 0 L 12.6875 0 L 12.6875 -0.167969 Z M 7.839844 -6.5625 "/></g></g></g><g clip-path="url(#2326c6a92c)"><path fill="#f14902" d="M 55.683594 103.703125 C 53.28125 101.304688 49.964844 99.820312 46.300781 99.820312 C 42.636719 99.820312 39.320312 101.304688 36.921875 103.703125 C 34.519531 106.105469 33.035156 109.421875 33.035156 113.085938 C 33.035156 116.75 34.519531 120.066406 36.921875 122.46875 C 39.320312 124.867188 42.636719 126.355469 46.300781 126.355469 C 49.964844 126.355469 53.28125 124.867188 55.683594 122.46875 C 58.082031 120.066406 59.570312 116.75 59.570312 113.085938 C 59.570312 109.421875 58.082031 106.105469 55.683594 103.703125 Z M 55.683594 103.703125 " fill-opacity="1" fill-rule="nonzero"/></g><path fill="#fefefe" d="M 39.878906 113.003906 L 41.320312 111.5625 L 42.761719 113.007812 L 41.324219 114.449219 C 40.824219 114.945312 40.578125 115.601562 40.578125 116.257812 C 40.578125 116.914062 40.824219 117.566406 41.324219 118.066406 C 41.820312 118.5625 42.476562 118.808594 43.132812 118.808594 C 43.789062 118.808594 44.441406 118.5625 44.941406 118.066406 L 46.378906 116.625 L 47.824219 118.070312 L 46.382812 119.507812 C 45.488281 120.40625 44.308594 120.851562 43.132812 120.851562 C 41.953125 120.851562 40.773438 120.40625 39.878906 119.507812 C 38.984375 118.613281 38.535156 117.433594 38.535156 116.257812 C 38.535156 115.078125 38.984375 113.898438 39.878906 113.003906 Z M 39.878906 113.003906 " fill-opacity="1" fill-rule="nonzero"/><path fill="#fefefe" d="M 40.597656 112.285156 L 41.699219 111.183594 C 42.097656 110.789062 42.746094 110.789062 43.144531 111.183594 C 43.539062 111.582031 43.539062 112.230469 43.144531 112.628906 L 42.042969 113.726562 Z M 40.597656 112.285156 " fill-opacity="1" fill-rule="evenodd"/><path fill="#fefefe" d="M 45.660156 117.34375 L 46.757812 116.246094 C 47.15625 115.847656 47.804688 115.847656 48.203125 116.246094 C 48.601562 116.640625 48.601562 117.292969 48.203125 117.691406 L 47.105469 118.789062 Z M 45.660156 117.34375 " fill-opacity="1" fill-rule="evenodd"/><path fill="#fefefe" d="M 46.21875 106.664062 L 44.777344 108.105469 L 46.222656 109.546875 L 47.664062 108.105469 C 48.160156 107.609375 48.816406 107.363281 49.472656 107.363281 C 50.128906 107.363281 50.785156 107.609375 51.28125 108.105469 C 51.777344 108.605469 52.027344 109.257812 52.027344 109.914062 C 52.027344 110.570312 51.777344 111.226562 51.28125 111.722656 L 49.839844 113.164062 L 51.285156 114.609375 L 52.722656 113.167969 C 53.621094 112.273438 54.066406 111.09375 54.066406 109.914062 C 54.066406 108.738281 53.621094 107.558594 52.722656 106.664062 C 51.828125 105.769531 50.652344 105.320312 49.472656 105.320312 C 48.292969 105.320312 47.113281 105.769531 46.21875 106.664062 Z M 46.21875 106.664062 " fill-opacity="1" fill-rule="nonzero"/><path fill="#fefefe" d="M 45.5 107.382812 L 44.398438 108.484375 C 44.003906 108.878906 44.003906 109.53125 44.398438 109.925781 C 44.796875 110.324219 45.445312 110.324219 45.84375 109.925781 L 46.941406 108.828125 Z M 45.5 107.382812 " fill-opacity="1" fill-rule="evenodd"/><path fill="#fefefe" d="M 50.558594 112.445312 L 49.460938 113.542969 C 49.0625 113.941406 49.0625 114.589844 49.460938 114.988281 C 49.859375 115.386719 50.507812 115.386719 50.90625 114.988281 L 52.003906 113.890625 Z M 50.558594 112.445312 " fill-opacity="1" fill-rule="evenodd"/><path fill="#fefefe" d="M 42.5 115.445312 L 48.660156 109.285156 C 49.054688 108.886719 49.707031 108.886719 50.101562 109.285156 C 50.5 109.683594 50.5 110.332031 50.101562 110.726562 L 43.945312 116.886719 C 43.546875 117.285156 42.894531 117.285156 42.5 116.886719 C 42.101562 116.492188 42.101562 115.839844 42.5 115.445312 Z M 42.5 115.445312 " fill-opacity="1" fill-rule="evenodd"/></svg>